<?xml version="1.0" encoding="utf-8"?>
<!-- Generator: Adobe Illustrator 21.1.0, SVG Export Plug-In . SVG Version: 6.00 Build 0)  -->
<svg version="1.1" id="Warstwa_1" xmlns="http://www.w3.org/2000/svg" xmlns:xlink="http://www.w3.org/1999/xlink" x="0px" y="0px"
	 viewBox="0 0 425.2 283.5" style="enable-background:new 0 0 425.2 283.5;" xml:space="preserve">
<style type="text/css">
	.st0{fill:url(#SVGID_1_);}
	.st1{fill:#444B4C;}
	.st2{fill:url(#SVGID_2_);}
	.st3{fill:url(#SVGID_3_);}
	.st4{fill:#333333;}
	.st5{fill:url(#SVGID_4_);}
	.st6{fill:url(#SVGID_5_);}
	.st7{fill:url(#SVGID_6_);}
	.st8{fill:url(#SVGID_7_);}
	.st9{fill:url(#SVGID_8_);}
	.st10{fill:url(#SVGID_9_);}
	.st11{fill:url(#SVGID_10_);}
	.st12{fill:url(#SVGID_11_);}
	.st13{fill:url(#SVGID_12_);}
	.st14{fill:#BDD5E5;}
	.st15{fill:url(#SVGID_13_);}
	.st16{fill:#005D6C;}
	.st17{fill:url(#SVGID_14_);}
	.st18{fill:url(#SVGID_15_);}
	.st19{fill:url(#SVGID_16_);}
	.st20{fill:url(#SVGID_17_);}
</style>
<g>
	<g>
		<linearGradient id="SVGID_1_" gradientUnits="userSpaceOnUse" x1="70.5099" y1="11.0941" x2="320.7242" y2="252.8837">
			<stop  offset="0" style="stop-color:#DEEBF2"/>
			<stop  offset="0.1033" style="stop-color:#D5E1E8"/>
			<stop  offset="0.2811" style="stop-color:#BCC6CC"/>
			<stop  offset="0.512" style="stop-color:#939B9F"/>
			<stop  offset="0.7839" style="stop-color:#5C5F61"/>
			<stop  offset="1" style="stop-color:#2B2B2B"/>
		</linearGradient>
		<path class="st0" d="M205.7,23.8c-65.1,0-117.9,52.8-117.9,117.9c0,65.1,52.8,117.9,117.9,117.9c65.1,0,117.9-52.8,117.9-117.9
			C323.6,76.6,270.8,23.8,205.7,23.8z M205.7,253.8c-61.9,0-112-50.2-112-112c0-61.9,50.2-112,112-112s112,50.2,112,112
			C317.7,203.6,267.6,253.8,205.7,253.8z"/>
		<circle class="st1" cx="205.7" cy="141.7" r="112.9"/>
		<radialGradient id="SVGID_2_" cx="86.286" cy="31.5916" r="167.5655" gradientUnits="userSpaceOnUse">
			<stop  offset="0" style="stop-color:#FFFFFF"/>
			<stop  offset="0.3064" style="stop-color:#A8A8A8"/>
			<stop  offset="0.6461" style="stop-color:#4F4F4F"/>
			<stop  offset="0.8853" style="stop-color:#161616"/>
			<stop  offset="1" style="stop-color:#000000"/>
		</radialGradient>
		<circle class="st2" cx="205.7" cy="141.7" r="112"/>
		
			<linearGradient id="SVGID_3_" gradientUnits="userSpaceOnUse" x1="-7684.4668" y1="-7526.9336" x2="-7525.106" y2="-7372.939" gradientTransform="matrix(-1 0 0 -1 -7392.666 -7302)">
			<stop  offset="0" style="stop-color:#DEEBF2"/>
			<stop  offset="8.895580e-02" style="stop-color:#D5E1E8"/>
			<stop  offset="0.2421" style="stop-color:#BBC6CC"/>
			<stop  offset="0.4411" style="stop-color:#929A9F"/>
			<stop  offset="0.6781" style="stop-color:#585D60"/>
			<stop  offset="0.9446" style="stop-color:#101111"/>
			<stop  offset="1" style="stop-color:#000000"/>
		</linearGradient>
		<circle class="st3" cx="205.7" cy="141.7" r="75.1"/>
		<g>
			<polygon points="208.7,64.6 216.5,43.9 216.5,64.6 222.4,64.6 222.4,35 213.5,35 205.4,56.2 205.5,56.2 197.4,35 188.5,35 
				188.5,64.6 194.4,64.6 194.4,43.9 202.2,64.6 			"/>
		</g>
		<g>
			<polygon points="290,77.9 279.9,92.6 295.8,84.8 300.1,90 275.1,102.5 270,96.4 279.7,81.8 279.7,81.7 263.6,88.6 258.4,82.5 
				275.3,60.2 279.6,65.4 269.1,79.6 285.4,72.3 			"/>
		</g>
		<path class="st4" d="M153.2,72.2c-2.4-2.3-6.1-3-9.5-0.9c0.7-1.7,0.4-3.5,0-4.4c-1.5-2.7-2-3.1-3.2-4.1c-4-3.3-8.2-0.5-11.2,3.1
			l-14.5,17.2l22.7,19.1L152.9,84C156.4,79.9,156.9,75.8,153.2,72.2z M123.8,80.5l8.7-10.3c1-1.2,3.3-1.1,4.7,0.1
			c1.6,1.3,1.6,3.3,0.5,4.5L129.2,85L123.8,80.5z M147.8,82.2L138.7,93l-5.7-4.8l9.1-10.9c1-1.2,3.3-1.6,4.9-0.3
			C148.8,78.6,149,80.8,147.8,82.2z"/>
		<g>
			<g>
				<radialGradient id="SVGID_4_" cx="56.1936" cy="14.5268" r="402.6292" gradientUnits="userSpaceOnUse">
					<stop  offset="0" style="stop-color:#FFFFFF"/>
					<stop  offset="0.3102" style="stop-color:#FDFDFD"/>
					<stop  offset="0.4505" style="stop-color:#F6F6F6"/>
					<stop  offset="0.5567" style="stop-color:#E9E9E9"/>
					<stop  offset="0.6456" style="stop-color:#D7D7D7"/>
					<stop  offset="0.7238" style="stop-color:#BFBFBF"/>
					<stop  offset="0.7944" style="stop-color:#A2A2A2"/>
					<stop  offset="0.8593" style="stop-color:#808080"/>
					<stop  offset="0.9199" style="stop-color:#575757"/>
					<stop  offset="0.9746" style="stop-color:#2B2B2B"/>
					<stop  offset="1" style="stop-color:#141414"/>
				</radialGradient>
				<polygon class="st5" points="208.8,63.4 216.6,42.8 216.6,63.4 222.5,63.4 222.5,33.8 213.6,33.8 205.5,55 205.6,55 197.5,33.8 
					188.6,33.8 188.6,63.4 194.5,63.4 194.5,42.8 202.3,63.4 				"/>
			</g>
			<g>
				<radialGradient id="SVGID_5_" cx="56.1724" cy="14.5275" r="402.6706" gradientUnits="userSpaceOnUse">
					<stop  offset="0" style="stop-color:#FFFFFF"/>
					<stop  offset="0.3102" style="stop-color:#FDFDFD"/>
					<stop  offset="0.4505" style="stop-color:#F6F6F6"/>
					<stop  offset="0.5567" style="stop-color:#E9E9E9"/>
					<stop  offset="0.6456" style="stop-color:#D7D7D7"/>
					<stop  offset="0.7238" style="stop-color:#BFBFBF"/>
					<stop  offset="0.7944" style="stop-color:#A2A2A2"/>
					<stop  offset="0.8593" style="stop-color:#808080"/>
					<stop  offset="0.9199" style="stop-color:#575757"/>
					<stop  offset="0.9746" style="stop-color:#2B2B2B"/>
					<stop  offset="1" style="stop-color:#141414"/>
				</radialGradient>
				<polygon class="st6" points="290.1,75.9 280,90.6 295.9,82.8 300.2,88 275.2,100.6 270.1,94.4 279.8,79.8 279.8,79.7 
					263.6,86.6 258.5,80.6 275.4,58.2 279.7,63.4 269.1,77.6 285.5,70.3 				"/>
			</g>
			<radialGradient id="SVGID_6_" cx="56.167" cy="14.5244" r="402.6844" gradientUnits="userSpaceOnUse">
				<stop  offset="0" style="stop-color:#FFFFFF"/>
				<stop  offset="0.3102" style="stop-color:#FDFDFD"/>
				<stop  offset="0.4505" style="stop-color:#F6F6F6"/>
				<stop  offset="0.5567" style="stop-color:#E9E9E9"/>
				<stop  offset="0.6456" style="stop-color:#D7D7D7"/>
				<stop  offset="0.7238" style="stop-color:#BFBFBF"/>
				<stop  offset="0.7944" style="stop-color:#A2A2A2"/>
				<stop  offset="0.8593" style="stop-color:#808080"/>
				<stop  offset="0.9199" style="stop-color:#575757"/>
				<stop  offset="0.9746" style="stop-color:#2B2B2B"/>
				<stop  offset="1" style="stop-color:#141414"/>
			</radialGradient>
			<path class="st7" d="M152.2,71.6c-2.4-2.3-6.1-3-9.5-0.9c0.7-1.7,0.4-3.5,0-4.4c-1.5-2.7-2-3.1-3.2-4.1c-4-3.3-8.2-0.5-11.1,3.1
				l-14.5,17.2l22.7,19.1l15.2-18.2C155.3,79.3,155.8,75.2,152.2,71.6z M122.8,79.9l8.7-10.3c1-1.2,3.3-1.2,4.7,0.1
				c1.6,1.4,1.6,3.3,0.5,4.5l-8.6,10.2L122.8,79.9z M146.7,81.7l-9.1,10.8l-5.7-4.8l9.1-10.9c1-1.2,3.3-1.6,4.9-0.3
				C147.8,78,147.9,80.2,146.7,81.7z"/>
		</g>
	</g>
	<g>
		<radialGradient id="SVGID_7_" cx="128.3033" cy="70.348" r="108.6029" gradientUnits="userSpaceOnUse">
			<stop  offset="0" style="stop-color:#E6E6E6"/>
			<stop  offset="0.1045" style="stop-color:#D6D6D6"/>
			<stop  offset="0.3074" style="stop-color:#ADADAD"/>
			<stop  offset="0.5884" style="stop-color:#6C6C6C"/>
			<stop  offset="0.9335" style="stop-color:#121212"/>
			<stop  offset="1" style="stop-color:#000000"/>
		</radialGradient>
		<circle class="st8" cx="205.7" cy="141.7" r="72.6"/>
		<radialGradient id="SVGID_8_" cx="158.0073" cy="84.9548" r="157.9402" gradientUnits="userSpaceOnUse">
			<stop  offset="0" style="stop-color:#FFFFFF"/>
			<stop  offset="0.3435" style="stop-color:#FDFDFD"/>
			<stop  offset="0.4814" style="stop-color:#F6F6F6"/>
			<stop  offset="0.5824" style="stop-color:#EAEAEA"/>
			<stop  offset="0.6654" style="stop-color:#D8D8D8"/>
			<stop  offset="0.7373" style="stop-color:#C2C2C2"/>
			<stop  offset="0.8016" style="stop-color:#A6A6A6"/>
			<stop  offset="0.8602" style="stop-color:#848484"/>
			<stop  offset="0.9126" style="stop-color:#5F5F5F"/>
			<stop  offset="0.9494" style="stop-color:#404040"/>
			<stop  offset="0.9566" style="stop-color:#404040"/>
			<stop  offset="1" style="stop-color:#404040"/>
			<stop  offset="1" style="stop-color:#000000"/>
		</radialGradient>
		<circle class="st9" cx="205.7" cy="141.7" r="70.5"/>
		<g>
			<radialGradient id="SVGID_9_" cx="111.6342" cy="25.0849" r="279.7131" gradientUnits="userSpaceOnUse">
				<stop  offset="0.1685" style="stop-color:#FFFFFF"/>
				<stop  offset="0.1884" style="stop-color:#E2F5FB"/>
				<stop  offset="0.2282" style="stop-color:#AEE2F4"/>
				<stop  offset="0.2697" style="stop-color:#7FD1EE"/>
				<stop  offset="0.312" style="stop-color:#58C3E9"/>
				<stop  offset="0.3554" style="stop-color:#38B7E5"/>
				<stop  offset="0.4002" style="stop-color:#1FAEE2"/>
				<stop  offset="0.447" style="stop-color:#0EA8E0"/>
				<stop  offset="0.4971" style="stop-color:#03A4DE"/>
				<stop  offset="0.5562" style="stop-color:#00A3DE"/>
				<stop  offset="0.6034" style="stop-color:#01A0DA"/>
				<stop  offset="0.6503" style="stop-color:#0498CE"/>
				<stop  offset="0.697" style="stop-color:#088BBA"/>
				<stop  offset="0.7437" style="stop-color:#0E789E"/>
				<stop  offset="0.7903" style="stop-color:#17607A"/>
				<stop  offset="0.8363" style="stop-color:#20424F"/>
				<stop  offset="0.8708" style="stop-color:#292929"/>
			</radialGradient>
			<path class="st10" d="M135.1,141.7h70.6V71.1C166.7,71.1,135.1,102.7,135.1,141.7z"/>
			<radialGradient id="SVGID_10_" cx="111.6335" cy="25.0819" r="279.7093" gradientUnits="userSpaceOnUse">
				<stop  offset="0.1685" style="stop-color:#FFFFFF"/>
				<stop  offset="0.1884" style="stop-color:#E2F5FB"/>
				<stop  offset="0.2282" style="stop-color:#AEE2F4"/>
				<stop  offset="0.2697" style="stop-color:#7FD1EE"/>
				<stop  offset="0.312" style="stop-color:#58C3E9"/>
				<stop  offset="0.3554" style="stop-color:#38B7E5"/>
				<stop  offset="0.4002" style="stop-color:#1FAEE2"/>
				<stop  offset="0.447" style="stop-color:#0EA8E0"/>
				<stop  offset="0.4971" style="stop-color:#03A4DE"/>
				<stop  offset="0.5562" style="stop-color:#00A3DE"/>
				<stop  offset="0.6034" style="stop-color:#01A0DA"/>
				<stop  offset="0.6503" style="stop-color:#0498CE"/>
				<stop  offset="0.697" style="stop-color:#088BBA"/>
				<stop  offset="0.7437" style="stop-color:#0E789E"/>
				<stop  offset="0.7903" style="stop-color:#17607A"/>
				<stop  offset="0.8363" style="stop-color:#20424F"/>
				<stop  offset="0.8708" style="stop-color:#292929"/>
			</radialGradient>
			<path class="st11" d="M205.7,141.7v70.6c39,0,70.6-31.6,70.6-70.6H205.7z"/>
		</g>
		<radialGradient id="SVGID_11_" cx="129.7866" cy="71.7153" r="106.5216" gradientUnits="userSpaceOnUse">
			<stop  offset="0" style="stop-color:#E6E6E6"/>
			<stop  offset="0.1045" style="stop-color:#D6D6D6"/>
			<stop  offset="0.3074" style="stop-color:#ADADAD"/>
			<stop  offset="0.5884" style="stop-color:#6C6C6C"/>
			<stop  offset="0.9335" style="stop-color:#121212"/>
			<stop  offset="1" style="stop-color:#000000"/>
		</radialGradient>
		<polygon class="st12" points="276.9,140.5 207,140.5 207,70.5 204.4,70.5 204.4,140.5 134.5,140.5 134.5,143 204.4,143 204.4,213 
			207,213 207,143 276.9,143 		"/>
		<linearGradient id="SVGID_12_" gradientUnits="userSpaceOnUse" x1="191.7316" y1="45.1185" x2="295.6107" y2="145.5">
			<stop  offset="0" style="stop-color:#EEF0F3"/>
			<stop  offset="0.1126" style="stop-color:#E9EBED"/>
			<stop  offset="0.2564" style="stop-color:#D9DBDE"/>
			<stop  offset="0.4173" style="stop-color:#BFC1C3"/>
			<stop  offset="0.5906" style="stop-color:#9C9D9F"/>
			<stop  offset="0.7738" style="stop-color:#6E6F70"/>
			<stop  offset="0.9626" style="stop-color:#373737"/>
			<stop  offset="1" style="stop-color:#2B2B2B"/>
		</linearGradient>
		<path class="st13" d="M207,72.5c37.3,0.7,67.3,30.7,68,68h1.2c-0.7-38-31.3-68.6-69.2-69.2V72.5z"/>
		<path class="st14" d="M136.3,140.5c0.7-37.3,30.8-67.4,68.1-68.1v-1.3c-38,0.7-68.7,31.3-69.3,69.3H136.3z"/>
		<linearGradient id="SVGID_13_" gradientUnits="userSpaceOnUse" x1="107.4155" y1="129.8705" x2="211.2957" y2="230.2531">
			<stop  offset="0" style="stop-color:#EEF0F3"/>
			<stop  offset="0.1126" style="stop-color:#E9EBED"/>
			<stop  offset="0.2564" style="stop-color:#D9DBDE"/>
			<stop  offset="0.4173" style="stop-color:#BFC1C3"/>
			<stop  offset="0.5906" style="stop-color:#9C9D9F"/>
			<stop  offset="0.7738" style="stop-color:#6E6F70"/>
			<stop  offset="0.9626" style="stop-color:#373737"/>
			<stop  offset="1" style="stop-color:#2B2B2B"/>
		</linearGradient>
		<path class="st15" d="M204.4,211c-37.3-0.7-67.3-30.7-68-68h-1.3c0.7,38,31.3,68.6,69.2,69.2V211z"/>
		<path class="st16" d="M275,143c-0.7,37.3-30.7,67.3-68,68v1.3c38-0.7,68.6-31.3,69.2-69.2H275z"/>
		<linearGradient id="SVGID_14_" gradientUnits="userSpaceOnUse" x1="157.6706" y1="94.0746" x2="211.5371" y2="146.1274">
			<stop  offset="0" style="stop-color:#BDD5E5"/>
			<stop  offset="0.1445" style="stop-color:#B5CEDF"/>
			<stop  offset="0.3699" style="stop-color:#9FBCCD"/>
			<stop  offset="0.6482" style="stop-color:#7B9EB1"/>
			<stop  offset="0.9658" style="stop-color:#49758B"/>
			<stop  offset="1" style="stop-color:#437086"/>
		</linearGradient>
		<polygon class="st17" points="203.1,71.1 203.1,139.1 135.1,139.1 135.1,140.4 203.1,140.4 204.4,140.4 204.4,139.1 204.4,71.1 		
			"/>
		<linearGradient id="SVGID_15_" gradientUnits="userSpaceOnUse" x1="130.6924" y1="106.8288" x2="233.5291" y2="206.2029">
			<stop  offset="0" style="stop-color:#EEF0F3"/>
			<stop  offset="0.1015" style="stop-color:#E5E7EA"/>
			<stop  offset="0.268" style="stop-color:#CDCFD1"/>
			<stop  offset="0.4788" style="stop-color:#A6A7A9"/>
			<stop  offset="0.7256" style="stop-color:#707071"/>
			<stop  offset="1" style="stop-color:#2B2B2B"/>
		</linearGradient>
		<polygon class="st18" points="203,211.6 203,144.4 135.7,144.4 135.7,143.1 203,143.1 204.3,143.1 204.3,144.4 204.3,211.6 		"/>
		<linearGradient id="SVGID_16_" gradientUnits="userSpaceOnUse" x1="206.4896" y1="143.6912" x2="242.5618" y2="178.5489">
			<stop  offset="0" style="stop-color:#D6DDE8"/>
			<stop  offset="0.1215" style="stop-color:#D1DAE5"/>
			<stop  offset="0.26" style="stop-color:#C4D1DE"/>
			<stop  offset="0.4067" style="stop-color:#ADC2D1"/>
			<stop  offset="0.5594" style="stop-color:#8DAEBF"/>
			<stop  offset="0.7165" style="stop-color:#6493A8"/>
			<stop  offset="0.875" style="stop-color:#32738C"/>
			<stop  offset="0.9719" style="stop-color:#105D79"/>
		</linearGradient>
		<polygon class="st19" points="208.4,211.6 208.4,144.4 275.5,144.4 275.5,143.1 208.4,143.1 207.1,143.1 207.1,144.4 207.1,211.6 
					"/>
		<linearGradient id="SVGID_17_" gradientUnits="userSpaceOnUse" x1="169.59" y1="69.1152" x2="272.3136" y2="168.3801">
			<stop  offset="0" style="stop-color:#EEF0F3"/>
			<stop  offset="0.1126" style="stop-color:#E9EBED"/>
			<stop  offset="0.2564" style="stop-color:#D9DBDE"/>
			<stop  offset="0.4173" style="stop-color:#BFC1C3"/>
			<stop  offset="0.5906" style="stop-color:#9C9D9F"/>
			<stop  offset="0.7738" style="stop-color:#6E6F70"/>
			<stop  offset="0.9626" style="stop-color:#373737"/>
			<stop  offset="1" style="stop-color:#2B2B2B"/>
		</linearGradient>
		<polygon class="st20" points="208.4,71.7 208.4,138.9 275.5,138.9 275.5,140.2 208.4,140.2 207.1,140.2 207.1,138.9 207.1,71.7 		
			"/>
	</g>
</g>
</svg>
