<?xml version="1.0" encoding="utf-8"?>
<!-- Generator: Adobe Illustrator 21.1.0, SVG Export Plug-In . SVG Version: 6.00 Build 0)  -->
<svg version="1.1" id="Layer_1" xmlns="http://www.w3.org/2000/svg" xmlns:xlink="http://www.w3.org/1999/xlink" x="0px" y="0px"
	 viewBox="0 0 2224 2224" style="enable-background:new 0 0 2224 2224;" xml:space="preserve">
<style type="text/css">
	.st0{fill:none;stroke:#59595B;stroke-width:2.179;stroke-linecap:round;stroke-linejoin:round;stroke-miterlimit:2.613;}
	.st1{fill:#7CC6F2;}
	.st2{fill:none;stroke:#D0D1D3;stroke-width:0.389;stroke-linecap:round;stroke-linejoin:round;stroke-miterlimit:2.613;}
	.st3{fill:none;stroke:#59595B;stroke-width:0.389;stroke-linecap:round;stroke-linejoin:round;stroke-miterlimit:2.613;}
	.st4{fill:#295BA7;}
	.st5{fill:#CC212F;}
	.st6{fill:none;stroke:#D0D1D3;stroke-width:2.179;stroke-linecap:round;stroke-linejoin:round;stroke-miterlimit:2.613;}
	.st7{fill:#6D6E70;}
</style>
<path class="st0" d="M1604.8,1138.4L1584.2,704 M866.9,1520h353.9l120.9-293.8 M1354.1,1517h348l132.7-302.3 M1834.9,1520h343.3V704
	"/>
<path class="st1" d="M45.8,1520h254.8l335-816H380.3L45.8,1520L45.8,1520z"/>
<path class="st2" d="M635.7,704H380.3L45.8,1520"/>
<path class="st3" d="M45.8,1520h254.8l335-816"/>
<path class="st4" d="M905.3,704l-337.4,816H308.3l336.2-816H905.3z"/>
<path class="st3" d="M905.3,704l-337.4,816H308.3"/>
<path class="st2" d="M308.3,1520l336.2-816h260.7"/>
<path class="st5" d="M1170.7,704l-342.1,816H573.7L910,704H1170.7L1170.7,704z"/>
<path class="st2" d="M573.7,1520L910,704h260.7"/>
<path class="st3" d="M1170.7,704l-342.1,816H573.7"/>
<path class="st6" d="M2178.2,704H1783l-178.1,434.3 M1584.2,704H1209l-342.1,816 M1341.7,1226.2l12.4,290.8 M1834.9,1214.7V1520"/>
<path class="st7" d="M2178.2,704H1783l-178.1,434.3L1584.2,704H1209l-342.1,816h353.9l120.9-293.8l12.4,290.8h348l132.7-302.3V1520
	h343.3V704z"/>
</svg>
